<svg xmlns="http://www.w3.org/2000/svg" width="512" height="512" fill="none"><path fill="#fff" d="M0 0h512v512H0z"/><path fill="#000" fill-rule="evenodd" d="M104.963 91.45c9.75-1.202 17.615 1.934 23.596 9.408a45.222 45.222 0 0 1 2.098 8.364c.524 19.859.699 39.721.524 59.587 10.843.174 21.679 0 32.51-.523.48-.432.83-.955 1.049-1.568 10.652-5.167 18.693-2.728 24.121 7.318l4.195 1.045a603.815 603.815 0 0 0 29.888-4.181c11.449 2.062 22.985 4.153 34.608 6.272a1129.492 1129.492 0 0 1 37.23-6.272 619.62 619.62 0 0 1 25.694 4.181c2.518-.803 4.091-2.546 4.719-5.227.865-.926 1.914-1.274 3.146-1.045.092-2.936 1.665-4.33 4.719-4.181 2.636 1.285 5.258 1.285 7.866 0 2.575.264 4.673 1.309 6.292 3.136a287.407 287.407 0 0 0 34.608 1.045c-.175-20.911 0-41.819.524-62.724a23.99 23.99 0 0 1 2.098-5.227c12.517-12.76 24.753-12.412 36.705 1.046l1.049 3.136c.524 21.254.699 42.51.524 63.769 5.953-.173 11.896.001 17.828.523 7.321 2.403 9.243 7.107 5.768 14.113a9.93 9.93 0 0 1-2.621 1.568 80.405 80.405 0 0 1-20.975 1.568 323.496 323.496 0 0 1-1.573 43.906c-6.818 10.268-16.081 13.231-27.791 8.886a33.782 33.782 0 0 1-9.963-9.931 308.764 308.764 0 0 1-1.573-42.861c-12.24-.175-24.475 0-36.705.523-9.684 13.135-21.92 23.24-36.706 30.316a22.442 22.442 0 0 1-9.438 1.568 5.142 5.142 0 0 0-.525-3.136 1015.712 1015.712 0 0 1-17.304 55.406 49.495 49.495 0 0 0 3.671 12.545 342.597 342.597 0 0 1 19.926 25.089 552.188 552.188 0 0 1 18.877 42.861c7.005 19.972 9.801 40.53 8.39 61.679-.001 6.282-2.973 8.547-8.915 6.795-6.599-4.604-11.318-10.702-14.157-18.295a413.717 413.717 0 0 1-5.768-38.679c-12.905-13.911-25.84-27.851-38.803-41.816-3.433-1.134-6.928-1.309-10.487-.523a1066.89 1066.89 0 0 0-39.327 40.248l-3.147 5.227c-.903 13.429-3.349 26.671-7.341 39.725a78.831 78.831 0 0 1-8.914 12.022 19.014 19.014 0 0 1-6.817 2.614c-2.417.016-4.165-1.029-5.243-3.137-1.953-10.779-1.953-21.581 0-32.407 6.155-29.693 16.992-57.57 32.51-83.632a14.605 14.605 0 0 1 4.195-3.136 100.457 100.457 0 0 1 10.487-13.59 126.256 126.256 0 0 0 5.768-14.636 2238.237 2238.237 0 0 0-15.206-44.952 266.836 266.836 0 0 1-5.768-29.271c-3.784-1.142-7.63-1.317-11.536-.522 3.341 2.266 6.662 4.531 9.963 6.795a476.09 476.09 0 0 1 3.67 15.158c-.118 1.338-.818 2.209-2.097 2.613-9.797-1.919-18.887-5.578-27.267-10.976a341.519 341.519 0 0 1-23.072-21.953 538.008 538.008 0 0 0-33.559-.523 300.711 300.711 0 0 1-1.573 41.816c-8.344 13.576-19.355 16.19-33.035 7.84a33.465 33.465 0 0 1-5.768-7.84 294.515 294.515 0 0 1-1.573-41.816 80.398 80.398 0 0 1-20.974-1.568c-3.893-2.627-5.116-6.286-3.671-10.977a18.703 18.703 0 0 1 5.768-4.704 171.107 171.107 0 0 1 18.877-.523 709.64 709.64 0 0 1 1.573-64.814c3.182-6.09 7.901-10.273 14.158-12.545Zm203.452 102.449c1.782-.168 3.53.006 5.244.522a59.973 59.973 0 0 0-9.963 8.886 111.477 111.477 0 0 0-4.195 11.5 85.082 85.082 0 0 1 1.049-18.818 151.458 151.458 0 0 0 7.865-2.09Z" clip-rule="evenodd" opacity=".898"/><path fill="#000" fill-rule="evenodd" d="M254.93 115.494c24.752 3.657 33.316 17.595 25.694 41.816-7.747 11.072-18.409 15.079-31.986 12.022-17.814-9.01-22.533-22.775-14.158-41.293 5.231-7.037 12.048-11.218 20.45-12.545Z" clip-rule="evenodd" opacity=".889"/></svg>